# xmcd CD database file
#
# Track frame offsets:
#	150
#	20400
#	43725
#	62250
#	86625
#	110175
#	127275
#	140700
#	160350
#	180300
#	196800
#	218625
#	233550
#	252225
#	275925
#
# Disc length: 3961 seconds
#
# Revision: 1
# Processed by: cddbd v1.5.1PL2 Copyright (c) Steve Scherf et al.
# Submitted via: freeDBTagger 0.8.2.1
#
DISCID=dd0f770f
DTITLE=スピッツ - CYCLE HIT 1997-2005 Spitz Complete Single Collection
DYEAR=2005
DGENRE=blues
TTITLE0=夢じゃない
TTITLE1=運命の人
TTITLE2=冷たい頬
TTITLE3=楓
TTITLE4=流れ星
TTITLE5=ホタル
TTITLE6=メモリーズ
TTITLE7=遥か
TTITLE8=夢追い虫
TTITLE9=さわって・変わって
TTITLE10=ハネモノ
TTITLE11=水色の街
TTITLE12=スターゲイザー
TTITLE13=正夢
TTITLE14=春の歌
EXTD=
EXTT0=
EXTT1=
EXTT2=
EXTT3=
EXTT4=
EXTT5=
EXTT6=
EXTT7=
EXTT8=
EXTT9=
EXTT10=
EXTT11=
EXTT12=
EXTT13=
EXTT14=
PLAYORDER=
